<?xml version="1.0" encoding="UTF-8" standalone="no"?>
<svg
   height="36"
   viewBox="0 -960 879.00002 720"
   width="43.950001"
   version="1.1"
   id="svg132"
   sodipodi:docname="labels.svg"
   inkscape:version="1.2.2 (b0a8486541, 2022-12-01)"
   xmlns:inkscape="http://www.inkscape.org/namespaces/inkscape"
   xmlns:sodipodi="http://sodipodi.sourceforge.net/DTD/sodipodi-0.dtd"
   xmlns="http://www.w3.org/2000/svg"
   xmlns:svg="http://www.w3.org/2000/svg">
  <defs
     id="defs136" />
  <sodipodi:namedview
     id="namedview134"
     pagecolor="#505050"
     bordercolor="#eeeeee"
     borderopacity="1"
     inkscape:showpageshadow="0"
     inkscape:pageopacity="0"
     inkscape:pagecheckerboard="0"
     inkscape:deskcolor="#505050"
     showgrid="false"
     inkscape:zoom="16.291667"
     inkscape:cx="25.350384"
     inkscape:cy="17.984655"
     inkscape:window-width="1920"
     inkscape:window-height="1011"
     inkscape:window-x="0"
     inkscape:window-y="0"
     inkscape:window-maximized="1"
     inkscape:current-layer="svg132" />
  <path
     d="m 0,-240 v -182 h 60 v 122 h 122 v 60 z m 697,0 v -60 h 122 v -122 h 60 v 182 z M 113,-351 v -499 h 80 v 499 z m 121,0 v -499 h 42 v 499 z m 122,0 v -499 h 83 v 499 z m 125,0 v -499 h 121 v 499 z m 163,0 v -499 h 42 v 499 z m 83,0 v -499 h 38 v 499 z M 0,-778 v -182 h 182 v 60 H 60 v 122 z m 819,0 V -900 H 697 v -60 h 182 v 182 z"
     id="path130" />
</svg>
